<svg width="166" height="36" viewBox="0 0 166 36" fill="none" xmlns="http://www.w3.org/2000/svg">
<path d="M7.9 17.1C7.9 17.7667 8.33333 18.3167 9.2 18.75C10.1 19.15 11.1833 19.5167 12.45 19.85C13.7167 20.15 14.9833 20.55 16.25 21.05C17.5167 21.5167 18.5833 22.3167 19.45 23.45C20.35 24.5833 20.8 26 20.8 27.7C20.8 30.2667 19.8333 32.25 17.9 33.65C16 35.0167 13.6167 35.7 10.75 35.7C5.61667 35.7 2.11667 33.7167 0.25 29.75L5.85 26.6C6.58333 28.7667 8.21667 29.85 10.75 29.85C13.05 29.85 14.2 29.1333 14.2 27.7C14.2 27.0333 13.75 26.5 12.85 26.1C11.9833 25.6667 10.9167 25.2833 9.65 24.95C8.38333 24.6167 7.11667 24.2 5.85 23.7C4.58333 23.2 3.5 22.4167 2.6 21.35C1.73333 20.25 1.3 18.8833 1.3 17.25C1.3 14.7833 2.2 12.85 4 11.45C5.83333 10.0167 8.1 9.3 10.8 9.3C12.8333 9.3 14.6833 9.76667 16.35 10.7C18.0167 11.6 19.3333 12.9 20.3 14.6L14.8 17.6C14 15.9 12.6667 15.05 10.8 15.05C9.96667 15.05 9.26667 15.2333 8.7 15.6C8.16667 15.9667 7.9 16.4667 7.9 17.1ZM38.5156 16.2H32.8656V26.6C32.8656 27.4667 33.0823 28.1 33.5156 28.5C33.949 28.9 34.5823 29.1333 35.4156 29.2C36.249 29.2333 37.2823 29.2167 38.5156 29.15V35C34.0823 35.5 30.949 35.0833 29.1156 33.75C27.3156 32.4167 26.4156 30.0333 26.4156 26.6V16.2H22.0656V10H26.4156V4.95L32.8656 3V10H38.5156V16.2ZM47.732 25.15C48.5987 28.2833 50.9487 29.85 54.782 29.85C57.2487 29.85 59.1154 29.0167 60.382 27.35L65.582 30.35C63.1154 33.9167 59.482 35.7 54.682 35.7C50.5487 35.7 47.232 34.45 44.732 31.95C42.232 29.45 40.982 26.3 40.982 22.5C40.982 18.7333 42.2154 15.6 44.682 13.1C47.1487 10.5667 50.3154 9.3 54.182 9.3C57.8487 9.3 60.8654 10.5667 63.232 13.1C65.632 15.6333 66.832 18.7667 66.832 22.5C66.832 23.3333 66.7487 24.2167 66.582 25.15H47.732ZM47.632 20.15H60.382C60.0154 18.45 59.2487 17.1833 58.082 16.35C56.9487 15.5167 55.6487 15.1 54.182 15.1C52.4487 15.1 51.0154 15.55 49.882 16.45C48.7487 17.3167 47.9987 18.55 47.632 20.15ZM83.0395 35.7C79.2728 35.7 76.1228 34.4333 73.5895 31.9C71.0895 29.3667 69.8395 26.2333 69.8395 22.5C69.8395 18.7667 71.0895 15.6333 73.5895 13.1C76.1228 10.5667 79.2728 9.3 83.0395 9.3C85.4728 9.3 87.6895 9.88333 89.6895 11.05C91.6895 12.2167 93.2061 13.7833 94.2395 15.75L88.6895 19C88.1895 17.9667 87.4228 17.15 86.3895 16.55C85.3895 15.95 84.2561 15.65 82.9895 15.65C81.0561 15.65 79.4561 16.3 78.1895 17.6C76.9228 18.8667 76.2895 20.5 76.2895 22.5C76.2895 24.4667 76.9228 26.1 78.1895 27.4C79.4561 28.6667 81.0561 29.3 82.9895 29.3C84.2895 29.3 85.4395 29.0167 86.4395 28.45C87.4728 27.85 88.2395 27.0333 88.7395 26L94.3395 29.2C93.2395 31.1667 91.6895 32.75 89.6895 33.95C87.6895 35.1167 85.4728 35.7 83.0395 35.7ZM120.801 35H113.301L104.201 23.65V35H97.7508V-2.38419e-06H104.201V21L112.801 10H120.501L110.451 22.35L120.801 35ZM127.664 25.15C128.53 28.2833 130.88 29.85 134.714 29.85C137.18 29.85 139.047 29.0167 140.314 27.35L145.514 30.35C143.047 33.9167 139.414 35.7 134.614 35.7C130.48 35.7 127.164 34.45 124.664 31.95C122.164 29.45 120.914 26.3 120.914 22.5C120.914 18.7333 122.147 15.6 124.614 13.1C127.08 10.5667 130.247 9.3 134.114 9.3C137.78 9.3 140.797 10.5667 143.164 13.1C145.564 15.6333 146.764 18.7667 146.764 22.5C146.764 23.3333 146.68 24.2167 146.514 25.15H127.664ZM127.564 20.15H140.314C139.947 18.45 139.18 17.1833 138.014 16.35C136.88 15.5167 135.58 15.1 134.114 15.1C132.38 15.1 130.947 15.55 129.814 16.45C128.68 17.3167 127.93 18.55 127.564 20.15ZM157.716 14.3C158.316 12.7 159.3 11.5 160.666 10.7C162.066 9.9 163.616 9.5 165.316 9.5V16.7C163.35 16.4667 161.583 16.8667 160.016 17.9C158.483 18.9333 157.716 20.65 157.716 23.05V35H151.266V10H157.716V14.3Z" fill="#1227E2"/>
</svg>
