<svg width="981" height="100" viewBox="0 0 981 100" fill="none" xmlns="http://www.w3.org/2000/svg">
<g opacity="0.2">
<path d="M16 20V33.9621H0V67.7276H26V20H16ZM16 59.8917H10V42.0829H16V59.8917ZM30 33.9621H40V67.8701H30V33.9621ZM30 20H40V29.9729H30V20ZM44 33.9621V67.7276H60V71.7168H44V79.8376H70V33.9621H44ZM60 59.8917H54V42.0829H60V59.8917ZM74 33.9621V67.7276H90V71.7168H74V79.8376H100V33.9621H74ZM90 59.8917H84V42.0829H90V59.8917Z" fill="#1227E2"/>
<path d="M455.667 26.25C450.654 33.125 448.147 41.25 448.147 50C448.147 56.25 449.4 61.875 451.907 67.5L458.174 38.75C460.054 28.125 460.681 26.25 455.667 26.25ZM480.735 66.25C482.615 58.125 480.735 51.875 473.842 51.875C468.828 51.875 463.814 55.625 462.561 61.25L460.681 71.875C458.801 78.125 462.561 81.25 466.948 81.25C474.468 81.25 478.855 74.375 480.735 66.25ZM490.136 0C462.561 0 440 22.5 440 50C440 77.5 462.561 100 490.136 100C517.71 100 540.271 77.5 540.271 50C540.271 22.5 517.71 0 490.136 0ZM490.136 96.875C476.975 96.875 465.068 91.875 456.921 83.125C455.041 80.625 452.534 78.125 450.654 75.625C446.267 68.125 443.133 59.375 443.133 50C443.133 24.375 464.441 3.125 490.136 3.125C515.83 3.125 537.138 24.375 537.138 50C537.138 75.625 515.83 96.875 490.136 96.875ZM513.95 66.25C515.83 58.125 513.95 51.875 507.056 51.875C502.043 51.875 497.029 55.625 495.776 61.25L493.269 71.875C492.016 78.75 495.776 81.875 500.163 81.875C507.056 81.25 512.07 74.375 513.95 66.25ZM490.136 8.125C477.602 8.125 465.695 13.75 458.174 22.5C461.934 21.875 466.948 21.25 469.455 20.625C470.708 20.625 470.708 21.25 470.708 21.875C470.708 23.125 464.441 51.875 464.441 51.875C467.575 50 471.961 47.5 475.722 47.5C481.362 47.5 485.122 50 487.629 53.125L490.762 38.125C493.269 28.125 493.269 26.25 488.256 26.25C485.749 26.25 485.749 23.125 488.256 22.5C492.016 21.875 499.536 21.25 502.67 20.625C503.923 20.625 503.923 21.25 503.923 21.875L497.656 51.875C500.79 49.375 505.176 47.5 509.563 47.5C520.217 47.5 525.231 55.625 522.724 66.25C520.844 76.875 510.19 85 498.909 85C490.762 85 485.749 80.625 484.495 76.25C480.109 81.25 473.842 84.375 466.948 85C473.842 89.375 481.989 91.875 490.136 91.875C501.272 91.875 511.952 87.4632 519.826 79.6101C527.701 71.757 532.124 61.1059 532.124 50C532.124 38.8941 527.701 28.243 519.826 20.3899C511.952 12.5368 501.272 8.125 490.136 8.125Z" fill="#1227E2"/>
<path fill-rule="evenodd" clip-rule="evenodd" d="M220.272 7.06764L221.709 4.58627L224.02 2.93102L226.069 2L314.637 2.23402L317.051 3.56548L319.619 5.76744L320 94.2272L318.392 95.9687L315.177 97.454L225.342 97.8293L222.23 96.3293L220 93.6402L220.272 7.06764ZM225.051 79.1201L315.089 79.0596L315.344 7.24971L225.373 6.97535L225.051 79.1201ZM243.918 91.9668L255.878 92.0727L255.934 90.3741L245.967 90.2833L246.066 88.4333L255.853 88.4737L255.933 87.1932L246.134 87.1125C246.134 87.1125 246.11 85.0729 246.136 84.8278C246.161 84.5827 255.943 85.0729 255.943 85.0729L255.918 83.7919L244.018 83.8393L243.918 91.9668ZM300.052 91.4624L312.012 91.5683L312.068 89.8697L302.101 89.7789L302.2 87.929L311.988 87.9694L312.067 86.6888L302.268 86.6081C302.268 86.6081 302.244 84.5686 302.27 84.3234C302.296 84.0783 312.078 84.5686 312.078 84.5686L312.052 83.2875L300.152 83.3349L300.052 91.4624ZM259.758 83.8806L259.695 91.7817L275.426 91.8548L275.437 83.9134L272.477 83.8731L272.562 89.8485L268.617 89.9217L268.537 83.9301L265.857 83.8388L265.916 89.9968L262.071 89.8783L261.963 83.8564L259.758 83.8806H259.758ZM279.29 83.8352L279.102 91.998L281.304 91.9632C281.304 91.9632 281.229 83.9744 281.164 83.8468C281.1 83.7187 279.29 83.8357 279.29 83.8357V83.8352ZM228.401 83.9089L228.332 92.0051L230.605 91.9526L230.6 88.7728L235.575 88.8368L237.52 91.5567L240.681 91.5809L238.157 88.8772L240.306 87.3974L240.206 83.6002L228.401 83.9089ZM285.041 83.9089L284.972 92.0051L287.245 91.9526L287.24 88.7728L292.215 88.8368L294.16 91.5567L297.321 91.5809L294.797 88.8772L296.946 87.3974L296.845 83.6002L285.041 83.9089Z" fill="#1227E2"/>
<path fill-rule="evenodd" clip-rule="evenodd" d="M230.727 58.8534L241.924 58.6946L249.422 57.2456L256.51 54.4011L259.435 52.6949L262.897 54.9856L267.109 57.0343L261.344 60.5178L255.745 63.335L250.819 65.0765L245.003 65.9425L230.738 66.2048L230.727 58.8534ZM230.534 46.6937L236.843 46.7416L240.541 45.8631L244.239 44.2598L248.886 46.5535L253.663 48.8584L247.9 52.0847L241.885 53.4676L236.855 54.1842L230.271 54.2851L230.534 46.6937Z" fill="#1227E2"/>
<path fill-rule="evenodd" clip-rule="evenodd" d="M230.652 38.7422L237.997 39.1497L244.88 41.506L251.762 44.6309L257.77 47.4916L263.933 51.6922L269.84 55.5847L275.283 59.1656L282.496 62.3515L289.79 65.3741L293.642 66.0398L309.824 66.0363L309.844 58.3828L296.849 58.7914L288.918 56.4648L280.47 52.7942L273.837 48.1432L266.743 43.4397L259.473 39.4856L252.531 35.6597L245.08 32.2997L239.211 30.9531L230.763 31.0474L230.652 38.7422Z" fill="#1227E2"/>
<path fill-rule="evenodd" clip-rule="evenodd" d="M230.771 26.8163L241.649 26.8421L247.607 28.0202L253.924 30.6327L259.728 33.6033L267.124 38.0087L273.082 42.2089L280.837 46.9724L287.669 50.4045L294.705 53.1703L299.944 54.1432L310.443 54.1916L310.438 46.5926L301.472 46.9512L293.127 44.1077L285.144 39.5571L276.127 34.386L267.837 28.9568L260.063 24.4575L252.721 21.0719L247.801 19.7273L245.493 19.2598L230.82 19.582L230.771 26.8163Z" fill="#1227E2"/>
<path fill-rule="evenodd" clip-rule="evenodd" d="M310.465 38.3502L310.583 30.2061L301.357 30.3029L297.054 31.1225L291.403 32.813L286.995 34.9646L285.336 35.8865L289.952 38.1823L294.574 40.6924L299.659 39.2439L303.562 38.5202L310.465 38.3502ZM309.879 26.5476L310.123 18.5527L300.065 18.6017L292.861 18.6496L286.224 20.4425L279.226 23.6693L273.835 27.6102L273.875 28.623L277.264 30.6207L280.962 33.1817L285.893 30.3897L291.491 28.4762L298.579 26.9208L309.879 26.5476ZM231.042 85.6027L230.99 87.3956L237.03 87.442L237.287 85.5805L231.042 85.6027ZM287.682 85.6027L287.63 87.3956L293.67 87.442L293.927 85.5805L287.682 85.6027Z" fill="#1227E2"/>
<path fill-rule="evenodd" clip-rule="evenodd" d="M710 99.7294C682.386 99.7294 660 77.4042 660 49.8647C660 22.3251 682.386 0 710 0C737.614 0 760 22.3251 760 49.8647C760 77.4042 737.614 99.7294 710 99.7294ZM710 96.1676C735.642 96.1676 756.429 75.4371 756.429 49.8647C756.429 24.2922 735.642 3.56176 710 3.56176C684.358 3.56176 663.571 24.2922 663.571 49.8647C663.571 75.4371 684.358 96.1676 710 96.1676Z" fill="#1227E2"/>
<path fill-rule="evenodd" clip-rule="evenodd" d="M671.308 32.8155C673.448 27.712 676.518 24.7455 677.347 23.9065C678.176 23.068 679.353 23.477 680.142 23.9065C680.93 24.3364 700.689 44.0742 701.571 45.0654C702.453 46.0566 703.388 47.5352 700.856 47.5352C698.325 47.5352 673.454 47.3185 671.308 47.1709C669.161 47.0228 668.527 45.7742 668.527 44.7077C668.527 43.6412 669.168 37.9195 671.308 32.8155ZM695.212 10.8582C700.344 8.75832 704.003 8.89621 705.184 8.88807C706.365 8.87993 706.907 9.99883 707.16 10.8582C707.413 11.7181 707.596 39.7772 707.517 41.0996C707.438 42.4226 707.459 43.8895 705.67 42.104C703.879 40.3191 686.447 22.6273 685.034 21.0093C683.621 19.3907 684.058 18.0606 684.815 17.3065C685.571 16.5525 690.08 12.9587 695.213 10.8582H695.212ZM726.586 11.277C731.703 13.411 734.677 16.4731 735.519 17.2999C736.359 18.1268 735.949 19.3006 735.519 20.0868C735.088 20.8729 715.296 40.5786 714.302 41.4583C713.308 42.3376 711.826 43.2698 711.826 40.7455C711.826 38.2207 712.043 13.4176 712.191 11.277C712.34 9.13586 713.592 8.50391 714.661 8.50391C715.73 8.50391 721.468 9.14248 726.586 11.277ZM748.602 35.1164C750.708 40.2346 750.57 43.8834 750.578 45.0613C750.586 46.2393 749.464 46.7796 748.602 47.032C747.74 47.2839 719.605 47.467 718.279 47.3882C716.952 47.3088 715.481 47.3307 717.272 45.5457C719.062 43.7603 736.801 26.3748 738.424 24.9659C740.047 23.5564 741.38 23.9925 742.137 24.7471C742.893 25.5011 746.496 29.9981 748.602 35.1169V35.1164ZM748.182 66.9138C746.043 72.0173 742.972 74.9837 742.143 75.8227C741.314 76.6613 740.137 76.2522 739.349 75.8227C738.561 75.3928 718.801 55.655 717.919 54.6638C717.038 53.6727 716.103 52.194 718.634 52.194C721.166 52.194 746.036 52.4108 748.182 52.5583C750.329 52.7064 750.963 53.955 750.963 55.0215C750.963 56.088 750.323 61.8098 748.182 66.9138ZM724.278 88.871C719.146 90.9709 715.488 90.833 714.306 90.8412C713.125 90.8493 712.583 89.7304 712.33 88.871C712.078 88.0111 711.894 59.952 711.973 58.6296C712.053 57.3067 712.031 55.8397 713.821 57.6252C715.611 59.4101 733.044 77.1019 734.456 78.72C735.87 80.3386 735.432 81.6686 734.676 82.4227C733.92 83.1768 729.411 86.7706 724.278 88.871H724.278ZM692.905 88.4522C687.788 86.3182 684.813 83.2561 683.972 82.4293C683.131 81.6025 683.541 80.4286 683.972 79.6425C684.403 78.8563 704.194 59.1506 705.188 58.2709C706.182 57.3916 707.665 56.4595 707.665 58.9837C707.665 61.5085 707.447 86.3116 707.299 88.4522C707.151 90.5934 705.899 91.2253 704.829 91.2253C703.76 91.2253 698.023 90.5868 692.905 88.4522ZM670.888 64.6129C668.782 59.4946 668.921 55.8458 668.913 54.6679C668.904 53.49 670.026 52.9496 670.888 52.6972C671.75 52.4454 699.886 52.2622 701.212 52.3411C702.538 52.4204 704.009 52.3986 702.219 54.1835C700.429 55.969 682.689 73.3544 681.067 74.7634C679.444 76.1728 678.11 75.7368 677.354 74.9822C676.598 74.2281 672.994 69.7311 670.888 64.6124V64.6129Z" fill="#1227E2"/>
<path fill-rule="evenodd" clip-rule="evenodd" d="M980.271 0H880V100H980.271V0ZM912.939 32.85C915.198 30.5914 917.883 28.8004 920.838 27.5798C923.794 26.3592 926.962 25.7331 930.161 25.7375C933.351 25.7334 936.511 26.3566 939.459 27.5713C942.408 28.786 945.087 30.5684 947.345 32.8167L947.361 16.6437C942.042 13.9124 936.144 12.4915 930.161 12.5C923.961 12.5 918.078 14.1833 912.92 16.8333L912.941 32.85H912.939ZM947.345 67.1521C945.086 69.4102 942.402 71.2009 939.448 72.4212C936.493 73.6414 933.325 74.2672 930.127 74.2625C923.418 74.2625 917.343 71.5583 912.939 67.1833L912.92 83.3562C918.241 86.0886 924.141 87.5102 930.125 87.5021C936.325 87.5021 942.177 86.0042 947.33 83.3562L947.343 67.1521H947.345ZM905.805 49.9833C905.805 56.6917 908.531 62.7604 912.937 67.1521L896.689 67.1417C893.95 61.8353 892.525 55.9516 892.534 49.9833C892.534 43.8 894.034 37.9667 896.689 32.825L912.906 32.8417C910.651 35.0935 908.863 37.7665 907.645 40.7078C906.427 43.6491 905.801 46.801 905.805 49.9833ZM947.334 32.825C949.599 35.0777 951.395 37.7545 952.619 40.7016C953.843 43.6487 954.47 46.808 954.466 49.9979C954.466 56.6875 951.753 62.7479 947.366 67.1354L963.582 67.1542C966.322 61.8486 967.748 55.9657 967.74 49.9979C967.749 44.0287 966.323 38.1442 963.582 32.8375L947.334 32.825Z" fill="#1227E2"/>
</g>
</svg>
