<svg width="987" height="100" viewBox="0 0 987 100" fill="none" xmlns="http://www.w3.org/2000/svg">
<g opacity="0.2">
<path d="M667.799 29.0708L706.354 47.6376C707.357 48.1149 708.697 48.3642 710.023 48.3642C711.35 48.3642 712.689 48.1149 713.691 47.6376L752.246 29.0708C754.273 28.0969 754.273 26.5036 752.246 25.5258L713.691 6.95897C712.689 6.48175 711.348 6.23242 710.023 6.23242C708.699 6.23242 707.357 6.48175 706.354 6.95897L667.799 25.5258C665.771 26.5036 665.771 28.093 667.799 29.0708Z" fill="#1227E2"/>
<path d="M752.246 48.0927C752.246 48.0927 745.205 44.7073 744.271 44.2515C743.338 43.7958 743.086 43.8211 742.105 44.2749C741.125 44.7288 713.668 57.9546 713.668 57.9546C712.511 58.453 711.261 58.7012 710 58.6831C708.678 58.6831 707.334 58.4318 706.332 57.9546C706.332 57.9546 679.604 45.0989 678.35 44.4794C676.992 43.8269 676.602 43.8269 675.365 44.4113L667.748 48.0693C665.721 49.0432 665.721 50.6385 667.748 51.6144L706.309 70.1812C707.311 70.6584 708.652 70.9077 709.977 70.9077C711.301 70.9077 712.643 70.6584 713.646 70.1812L752.201 51.6183C754.273 50.6599 754.273 49.0705 752.246 48.0927Z" fill="#1227E2"/>
<path d="M752.247 70.6574C752.247 70.6574 745.206 67.2721 744.272 66.8104C743.338 66.3488 743.086 66.38 742.106 66.8338C741.125 67.2877 713.692 80.5427 713.692 80.5427C712.534 81.0402 711.284 81.2879 710.024 81.2693C708.702 81.2693 707.358 81.0199 706.354 80.5427C706.354 80.5427 679.625 67.687 678.374 67.0676C677.006 66.4072 676.616 66.4072 675.387 66.9994L667.77 70.6574C665.741 71.6313 665.741 73.2247 667.77 74.2025L706.325 92.7693C707.327 93.2679 708.668 93.4958 709.993 93.4958C711.317 93.4958 712.659 93.2465 713.661 92.7693L752.223 74.2122C754.274 73.2247 754.274 71.6352 752.247 70.6574Z" fill="#1227E2"/>
<path d="M50.1357 0C77.8106 0 100.271 22.4 100.271 50C100.271 77.6 77.8106 100 50.1357 100C22.4608 100 0 77.6 0 50C0 22.4 22.4608 0 50.1357 0ZM50.1357 2.5C23.8145 2.5 2.50678 23.75 2.50678 50C2.50678 76.25 23.8145 97.5 50.1357 97.5C76.4569 97.5 97.7646 76.25 97.7646 50C97.7646 23.75 76.4569 2.5 50.1357 2.5ZM50.1357 7.5C73.6995 7.5 92.751 26.5 92.751 50C92.751 73.5 73.6995 92.5 50.1357 92.5C26.5719 92.5 7.52035 73.5 7.52035 50C7.52035 26.5 26.5719 7.5 50.1357 7.5ZM59.1601 16.05C56.3024 16.05 53.6452 16.9 51.3891 18.3C55.2829 19.2219 58.7516 21.4257 61.235 24.5556C63.7184 27.6855 65.0716 31.5587 65.0761 35.55C65.0761 39 64.0233 42.2 62.3187 44.9C65.5743 44.1854 68.4875 42.383 70.5755 39.7914C72.6635 37.1998 73.8011 33.9746 73.7997 30.65C73.7997 22.6 67.232 16.05 59.1601 16.05ZM47.2278 21.05C45.2789 21.0179 43.3432 21.3735 41.5336 22.0959C39.7241 22.8184 38.077 23.8932 36.6887 25.2576C35.3004 26.6221 34.1987 28.2488 33.4479 30.0426C32.6971 31.8365 32.3123 33.7616 32.3159 35.7055C32.3196 37.6494 32.7117 39.573 33.4692 41.3641C34.2268 43.1552 35.3346 44.7777 36.7281 46.1369C38.1215 47.4961 39.7726 48.5648 41.5849 49.2804C43.3971 49.9961 45.3342 50.3444 47.283 50.305C51.1261 50.2273 54.7851 48.6483 57.4729 45.9078C60.1607 43.1672 61.6625 39.484 61.6553 35.6505C61.6481 31.817 60.1324 28.1395 57.4343 25.409C54.7362 22.6785 51.0712 21.1133 47.2278 21.05ZM68.5355 46.1L65.9786 49.05C77.7103 52.5 78.2618 67.1 78.2618 67.1H84.6792C84.6792 43.55 68.5355 46.1 68.5355 46.1ZM58.007 50.1L47.3782 60.55L36.7495 50.1C15.6423 51.2 19.5028 75 19.5028 75H75.0531C77.4095 50.1 58.007 50.1 58.007 50.1Z" fill="#1227E2"/>
<path d="M539.293 41.1035C539.016 40.8717 536.51 38.9727 531.132 38.9727C529.717 38.9809 528.305 39.1047 526.911 39.3428C525.892 32.2532 520.002 28.8253 519.769 28.6305L518.332 27.7969L517.404 29.1408C516.234 30.9653 515.373 32.9688 514.853 35.0715C513.877 39.1032 514.482 42.9012 516.523 46.1441C514.064 47.5348 510.078 47.8581 509.243 47.8971H443.39C442.98 47.8968 442.573 47.9775 442.194 48.1345C441.815 48.2916 441.471 48.5218 441.182 48.812C440.893 49.1022 440.664 49.4466 440.508 49.8254C440.353 50.2043 440.274 50.61 440.277 51.0192C440.189 56.785 441.165 62.5178 443.158 67.931C445.431 73.8618 448.815 78.2733 453.167 80.9494C458.092 83.9606 466.115 85.6745 475.157 85.6745C479.248 85.6747 483.331 85.3024 487.354 84.5624C492.962 83.5481 498.357 81.59 503.307 78.7719C507.383 76.4105 511.048 73.4066 514.16 69.8768C519.4 63.9928 522.507 57.4116 524.78 51.5685H525.708C531.413 51.5685 534.938 49.2975 536.885 47.3517C538.177 46.1301 539.19 44.6446 539.854 42.9967L540.271 41.793L539.293 41.1035Z" fill="#1227E2"/>
<path d="M449.513 46.0142H458.323C458.53 46.0142 458.728 45.9322 458.875 45.7861C459.021 45.6399 459.104 45.4418 459.104 45.2352V37.3509C459.104 37.1443 459.021 36.9461 458.875 36.8C458.728 36.6539 458.53 36.5718 458.323 36.5718H449.513C449.305 36.5718 449.107 36.6539 448.96 36.8C448.814 36.9461 448.731 37.1443 448.731 37.3509V45.2274C448.739 45.4315 448.824 45.6252 448.969 45.7697C449.114 45.9142 449.308 45.9987 449.513 46.0064M461.662 46.0142H470.474C470.681 46.0142 470.88 45.9322 471.026 45.7861C471.173 45.6399 471.255 45.4418 471.255 45.2352V37.3509C471.255 37.1443 471.173 36.9461 471.026 36.8C470.88 36.6539 470.681 36.5718 470.474 36.5718H461.662C461.455 36.5718 461.256 36.6539 461.11 36.8C460.963 36.9461 460.881 37.1443 460.881 37.3509V45.2274C460.889 45.4315 460.973 45.6252 461.118 45.7697C461.263 45.9142 461.457 45.9987 461.662 46.0064M474.044 46.0142H482.852C483.059 46.0142 483.258 45.9322 483.404 45.7861C483.551 45.6399 483.633 45.4418 483.633 45.2352V37.3509C483.633 37.1443 483.551 36.9461 483.404 36.8C483.258 36.6539 483.059 36.5718 482.852 36.5718H474.044C473.837 36.5718 473.638 36.6539 473.492 36.8C473.345 36.9461 473.263 37.1443 473.263 37.3509V45.2274C473.259 45.3306 473.277 45.4335 473.315 45.5296C473.353 45.6258 473.41 45.7131 473.484 45.7861C473.557 45.8592 473.645 45.9164 473.741 45.9543C473.837 45.9922 473.94 46.01 474.044 46.0064M486.242 46.0142H495.054C495.261 46.0142 495.46 45.9322 495.607 45.7861C495.753 45.6399 495.835 45.4418 495.835 45.2352V37.3509C495.835 37.1443 495.753 36.9461 495.607 36.8C495.46 36.6539 495.261 36.5718 495.054 36.5718H486.242C486.035 36.5718 485.836 36.6539 485.69 36.8C485.543 36.9461 485.461 37.1443 485.461 37.3509V45.2274C485.461 45.434 485.543 45.6322 485.69 45.7783C485.836 45.9244 486.035 46.0064 486.242 46.0064M461.662 34.7566H470.474C470.679 34.7489 470.873 34.6643 471.018 34.5198C471.163 34.3754 471.247 34.1817 471.255 33.9775V26.0932C471.255 25.8866 471.173 25.6884 471.026 25.5423C470.88 25.3962 470.681 25.3142 470.474 25.3142H461.662C461.455 25.3142 461.256 25.3962 461.11 25.5423C460.963 25.6884 460.881 25.8866 460.881 26.0932V33.9697C460.896 34.1713 460.983 34.3607 461.127 34.5036C461.27 34.6465 461.46 34.7335 461.662 34.7488M474.044 34.7566H482.852C483.057 34.7489 483.251 34.6643 483.396 34.5198C483.541 34.3754 483.625 34.1817 483.633 33.9775V26.0932C483.633 25.8866 483.551 25.6884 483.404 25.5423C483.258 25.3962 483.059 25.3142 482.852 25.3142H474.044C473.837 25.3142 473.638 25.3962 473.492 25.5423C473.345 25.6884 473.263 25.8866 473.263 26.0932V33.9697C473.263 34.1763 473.345 34.3745 473.492 34.5206C473.638 34.6667 473.837 34.7488 474.044 34.7488M486.242 34.7566H495.054C495.259 34.7489 495.453 34.6643 495.598 34.5198C495.743 34.3754 495.828 34.1817 495.835 33.9775V26.0932C495.828 25.8891 495.743 25.6954 495.598 25.5509C495.453 25.4064 495.259 25.3219 495.054 25.3142H486.242C486.035 25.3142 485.836 25.3962 485.69 25.5423C485.543 25.6884 485.461 25.8866 485.461 26.0932V33.9697C485.469 34.1739 485.554 34.3676 485.699 34.512C485.843 34.6565 486.038 34.7411 486.242 34.7488M486.242 23.4522H495.054C495.261 23.4522 495.46 23.3701 495.607 23.224C495.753 23.0779 495.835 22.8797 495.835 22.6731V14.7791C495.828 14.5749 495.743 14.3812 495.598 14.2367C495.453 14.0923 495.259 14.0077 495.054 14H486.242C486.035 14 485.836 14.0821 485.69 14.2282C485.543 14.3743 485.461 14.5725 485.461 14.7791V22.6556C485.469 22.8596 485.554 23.053 485.699 23.1974C485.844 23.3418 486.038 23.4265 486.242 23.4346M498.53 46.0142H507.342C507.549 46.0142 507.748 45.9322 507.895 45.7861C508.041 45.6399 508.123 45.4418 508.123 45.2352V37.3509C508.123 37.1443 508.041 36.9461 507.895 36.8C507.748 36.6539 507.549 36.5718 507.342 36.5718H498.53C498.323 36.5718 498.125 36.6539 497.978 36.8C497.832 36.9461 497.749 37.1443 497.749 37.3509V45.2274C497.757 45.4315 497.842 45.6252 497.987 45.7697C498.132 45.9142 498.326 45.9987 498.53 46.0064" fill="#1227E2"/>
<path d="M899.142 9.5H884.392L884.142 15.775H884.617C885.892 11.9 886.742 10.025 889.017 10.025H889.342V26.475H887.217V27H896.342V26.475H894.217V10.025H894.517C896.792 10.025 897.567 11.7 898.917 15.775H899.392L899.142 9.5ZM900.057 8.25V8.7H901.432V26.55H900.057V27H907.157V26.55H906.082V19.65C906.082 17.625 907.057 16.05 908.107 16.05C908.732 16.05 909.032 16.3 909.032 18.425V26.55H908.007V27H915.082V26.55H913.682V19.025C913.682 16 912.132 14.85 909.807 14.85C907.332 14.85 906.507 16.15 906.082 17.4V8.25H900.057ZM916.187 11.05C916.187 12.1 916.662 13.375 918.687 13.375C920.487 13.375 921.212 12.35 921.212 11.025C921.212 9.5 920.287 8.725 918.737 8.725C916.862 8.725 916.187 9.825 916.187 11.05ZM914.862 15.1V15.55H916.337V26.55H914.962V27H922.387V26.55H920.987V15.1H914.862ZM922.972 27.25H923.272C923.672 26.55 924.022 26.325 924.347 26.325C924.447 26.325 924.672 26.425 924.822 26.525C925.772 27 926.622 27.25 927.822 27.25C930.647 27.25 932.497 25.825 932.497 22.975C932.497 20.025 930.297 19.225 928.322 18.7C926.672 18.25 925.172 17.975 925.172 16.825C925.172 16.05 925.847 15.375 927.497 15.375C929.272 15.375 930.547 16.325 931.447 18.625H931.747V14.8H931.472C931.147 15.425 930.972 15.625 930.597 15.625C930.297 15.625 930.197 15.55 929.897 15.425C929.222 15.125 928.472 14.85 927.372 14.85C924.722 14.85 922.972 16.525 922.972 19.075C922.972 21.85 925.197 22.625 927.197 23.175C929.097 23.7 930.322 23.95 930.322 25.075C930.322 26.025 929.622 26.7 927.772 26.7C925.722 26.7 924.197 25.825 923.272 22.775H922.972V27.25ZM937.304 27.25H937.604C938.004 26.55 938.354 26.325 938.679 26.325C938.779 26.325 939.004 26.425 939.154 26.525C940.104 27 940.954 27.25 942.154 27.25C944.979 27.25 946.829 25.825 946.829 22.975C946.829 20.025 944.629 19.225 942.654 18.7C941.004 18.25 939.504 17.975 939.504 16.825C939.504 16.05 940.179 15.375 941.829 15.375C943.604 15.375 944.879 16.325 945.779 18.625H946.079V14.8H945.804C945.479 15.425 945.304 15.625 944.929 15.625C944.629 15.625 944.529 15.55 944.229 15.425C943.554 15.125 942.804 14.85 941.704 14.85C939.054 14.85 937.304 16.525 937.304 19.075C937.304 21.85 939.529 22.625 941.529 23.175C943.429 23.7 944.654 23.95 944.654 25.075C944.654 26.025 943.954 26.7 942.104 26.7C940.054 26.7 938.529 25.825 937.604 22.775H937.304V27.25ZM954.873 15.925C955.723 15.925 956.023 16.75 956.023 20.275V21.575C956.023 25.05 955.773 26.525 954.548 26.525C953.448 26.525 952.923 25.3 952.923 23.95V19.375C952.923 17.2 953.848 15.925 954.873 15.925ZM952.873 15.1H946.948V15.55H948.273V32.5H946.898V32.95H956.148V32.5H952.923V26.025C953.373 26.8 953.998 27.25 955.698 27.25C959.098 27.25 960.848 25.35 960.848 21.075C960.848 16.825 959.123 14.85 956.323 14.85C954.373 14.85 953.423 15.825 952.873 17.075V15.1ZM969.17 22.075C969.17 25.325 969.095 26.8 967.67 26.8C966.145 26.8 966.095 24.925 966.095 22.025V20.075C966.095 17.25 966.17 15.3 967.695 15.3C969.095 15.3 969.17 17.25 969.17 19.95V22.075ZM961.295 21.1C961.295 25 963.42 27.25 967.62 27.25C972.07 27.25 973.97 24.975 973.97 20.875C973.97 16.825 971.97 14.85 967.77 14.85C963.745 14.85 961.295 17 961.295 21.1ZM975.419 23.425C975.419 26.525 977.194 27.25 979.669 27.25C982.719 27.25 983.544 25.45 983.769 23.5L983.344 23.45C983.119 25.15 982.369 26.25 981.169 26.25C980.294 26.25 980.069 25.45 980.069 23.975V15.55H983.319V15.1H980.069V10.725L975.419 11.875V15.1H974.044V15.55H975.419V23.425ZM904.08 49.125C900.505 49.125 898.33 49.7 898.33 52.225C898.33 54.725 900.28 55.25 902.03 55.25C903.78 55.25 904.505 54.6 904.905 53.4C905.205 54.625 906.33 55.25 908.355 55.25C910.505 55.25 911.43 54.4 911.555 51.4L911.18 51.375C911.055 53.475 910.63 53.95 910.18 53.95C909.755 53.95 909.455 53.675 909.455 52.65V47.575C909.455 43.95 908.13 42.85 904.205 42.85C900.805 42.85 898.98 43.825 898.98 45.925C898.98 47.15 899.58 48 901.13 48C902.38 48 903.33 47.225 903.33 46.05C903.33 45.575 903.255 45.25 903.13 44.925H902.505C902.405 44.65 902.355 44.4 902.355 44.2C902.355 43.4 903.08 43.2 903.53 43.2C904.53 43.2 904.805 44.025 904.805 47.2V49.125H904.08ZM903.73 54.25C903.255 54.25 903.08 54 903.08 52.2V51.8C903.08 50.275 903.58 49.525 904.63 49.525H904.805V51.85C904.805 53.45 904.205 54.25 903.73 54.25ZM918.361 43.55H919.286L919.911 46.2L918.111 52.05L915.811 43.55H917.311V43.1H909.736V43.55H910.861L914.561 55H917.911L920.261 47.325L922.436 55H925.861L928.861 43.55H929.911V43.1H926.536V43.55H928.261L926.036 51.975L923.786 43.55H924.811V43.1H918.361V43.55ZM935.086 49.125C931.511 49.125 929.336 49.7 929.336 52.225C929.336 54.725 931.286 55.25 933.036 55.25C934.786 55.25 935.511 54.6 935.911 53.4C936.211 54.625 937.336 55.25 939.361 55.25C941.511 55.25 942.436 54.4 942.561 51.4L942.186 51.375C942.061 53.475 941.636 53.95 941.186 53.95C940.761 53.95 940.461 53.675 940.461 52.65V47.575C940.461 43.95 939.136 42.85 935.211 42.85C931.811 42.85 929.986 43.825 929.986 45.925C929.986 47.15 930.586 48 932.136 48C933.386 48 934.336 47.225 934.336 46.05C934.336 45.575 934.261 45.25 934.136 44.925H933.511C933.411 44.65 933.361 44.4 933.361 44.2C933.361 43.4 934.086 43.2 934.536 43.2C935.536 43.2 935.811 44.025 935.811 47.2V49.125H935.086ZM934.736 54.25C934.261 54.25 934.086 54 934.086 52.2V51.8C934.086 50.275 934.586 49.525 935.636 49.525H935.811V51.85C935.811 53.45 935.211 54.25 934.736 54.25ZM943.532 39.05C943.532 40.1 944.007 41.375 946.032 41.375C947.832 41.375 948.557 40.35 948.557 39.025C948.557 37.5 947.632 36.725 946.082 36.725C944.207 36.725 943.532 37.825 943.532 39.05ZM942.207 43.1V43.55H943.682V54.55H942.307V55H949.732V54.55H948.332V43.1H942.207ZM950.992 51.425C950.992 54.525 952.767 55.25 955.242 55.25C958.292 55.25 959.117 53.45 959.342 51.5L958.917 51.45C958.692 53.15 957.942 54.25 956.742 54.25C955.867 54.25 955.642 53.45 955.642 51.975V43.55H958.892V43.1H955.642V38.725L950.992 39.875V43.1H949.617V43.55H950.992V51.425ZM959.656 55.25H959.956C960.356 54.55 960.706 54.325 961.031 54.325C961.131 54.325 961.356 54.425 961.506 54.525C962.456 55 963.306 55.25 964.506 55.25C967.331 55.25 969.181 53.825 969.181 50.975C969.181 48.025 966.981 47.225 965.006 46.7C963.356 46.25 961.856 45.975 961.856 44.825C961.856 44.05 962.531 43.375 964.181 43.375C965.956 43.375 967.231 44.325 968.131 46.625H968.431V42.8H968.156C967.831 43.425 967.656 43.625 967.281 43.625C966.981 43.625 966.881 43.55 966.581 43.425C965.906 43.125 965.156 42.85 964.056 42.85C961.406 42.85 959.656 44.525 959.656 47.075C959.656 49.85 961.881 50.625 963.881 51.175C965.781 51.7 967.006 51.95 967.006 53.075C967.006 54.025 966.306 54.7 964.456 54.7C962.406 54.7 960.881 53.825 959.956 50.775H959.656V55.25ZM913.434 71.55H914.459L918.734 83H920.934L920.384 84.55C919.434 87.25 918.434 88.65 917.034 88.65C916.309 88.65 916.159 88.075 916.409 87.325H917.284C917.384 86.975 917.434 86.675 917.434 86.425C917.434 85.25 916.634 84.7 915.359 84.7C914.159 84.7 913.359 85.475 913.359 86.725C913.359 88.3 914.609 89.25 916.484 89.25C918.459 89.25 919.759 88.25 920.884 85.025L925.559 71.55H926.809V71.1H923.284V71.55H924.959L922.059 79.85L919.334 71.55H920.684V71.1H913.434V71.55ZM933.805 78.075C933.805 81.325 933.73 82.8 932.305 82.8C930.78 82.8 930.73 80.925 930.73 78.025V76.075C930.73 73.25 930.805 71.3 932.33 71.3C933.73 71.3 933.805 73.25 933.805 75.95V78.075ZM925.93 77.1C925.93 81 928.055 83.25 932.255 83.25C936.705 83.25 938.605 80.975 938.605 76.875C938.605 72.825 936.605 70.85 932.405 70.85C928.38 70.85 925.93 73 925.93 77.1ZM953.429 83V82.55H952.054V71.1H946.254V71.55H947.404V79.2C947.404 81.1 946.629 82.125 945.629 82.125C945.004 82.125 944.704 81.8 944.704 79.675V71.1H938.654V71.55H940.054V79.075C940.054 82.1 941.604 83.25 943.929 83.25C946.179 83.25 946.979 82.35 947.454 81.175L947.729 83H953.429Z" fill="#1227E2"/>
<path fill-rule="evenodd" clip-rule="evenodd" d="M270.182 1.0003C258.331 1.00189 246.868 5.20822 237.842 12.8669C228.816 20.5255 222.817 31.1368 220.917 42.8027C219.017 54.4685 221.342 66.4278 227.474 76.5413C233.606 86.6547 243.145 94.2626 254.387 98.0039C256.883 98.4662 257.952 96.9372 257.952 95.6215V87.1586C244.082 90.1455 241.159 80.4736 241.159 80.4736C240.183 77.4256 238.131 74.835 235.383 73.1841C230.854 70.126 235.739 70.1616 235.739 70.1616C237.321 70.3844 238.831 70.9648 240.153 71.8584C241.475 72.752 242.575 73.9352 243.369 75.3176C244.75 77.788 247.059 79.6102 249.787 80.3837C252.515 81.1572 255.439 80.8186 257.917 79.4424C258.118 76.9194 259.233 74.5558 261.054 72.7929C250.001 71.5128 238.342 67.2458 238.342 48.1864C238.261 43.2363 240.101 38.4464 243.476 34.8164C241.948 30.5288 242.127 25.82 243.975 21.6598C243.975 21.6598 248.147 20.3086 257.703 26.7447C265.873 24.5221 274.491 24.5221 282.661 26.7447C292.181 20.3086 296.353 21.6598 296.353 21.6598C298.201 25.82 298.38 30.5288 296.852 34.8164C300.228 38.4464 302.067 43.2363 301.986 48.1864C301.986 67.3169 290.327 71.5128 279.203 72.7574C280.394 73.962 281.313 75.4073 281.898 76.9959C282.482 78.5846 282.718 80.2797 282.59 81.967V95.6215C282.59 97.2572 283.481 98.5017 286.155 98.0039C297.411 94.2579 306.961 86.6354 313.092 76.5033C319.223 66.3712 321.535 54.3923 319.612 42.7147C317.689 31.037 311.657 20.4244 302.599 12.78C293.541 5.13561 282.048 0.959414 270.182 1.0003Z" fill="#1227E2"/>
</g>
</svg>
