<svg width="73" height="73" viewBox="0 0 73 73" fill="none" xmlns="http://www.w3.org/2000/svg">
<g clip-path="url(#clip0_1886_7120)">
<path d="M72.2217 36.0554C72.2217 55.9718 56.0765 72.1109 36.1663 72.1109C16.2561 72.1109 0.11084 55.9656 0.11084 36.0554C0.11084 16.1452 16.2561 0 36.1663 0C56.0765 0 72.2217 16.1452 72.2217 36.0554Z" fill="#95A63A"/>
<mask id="mask0_1886_7120" style="mask-type:alpha" maskUnits="userSpaceOnUse" x="0" y="0" width="73" height="73">
<path d="M72.2217 36.0554C72.2217 55.9718 56.0765 72.1109 36.1663 72.1109C16.2561 72.1109 0.11084 55.9656 0.11084 36.0554C0.11084 16.1452 16.2561 0 36.1663 0C56.0765 0 72.2217 16.1452 72.2217 36.0554Z" fill="#95A63A"/>
</mask>
<g mask="url(#mask0_1886_7120)">
<path d="M51.588 22.428C49.6749 23.0657 51.8088 30.6815 54.0163 27.6278C54.1573 28.7561 53.6177 29.9273 52.3668 29.866C52.0663 31.1537 53.9672 30.9084 54.0101 32.4168C54.0469 33.9069 52.655 33.772 52.6489 35.1394C52.6489 36.4393 54.0715 37.2488 55.2181 36.8379C56.6223 36.3412 56.7327 35.1271 57.0332 34.054C57.6954 35.1762 57.8855 36.703 57.2049 37.8313C58.094 37.9417 58.5539 37.1445 58.5845 36.3596C59.0567 37.1139 58.8789 38.1992 58.419 38.8921C58.7623 38.8185 59.2406 38.9963 59.5902 38.9412C59.817 40.2595 58.6949 41.7434 57.6525 42.5099C56.5242 43.3438 54.2677 43.1599 56.1318 44.7051C57.5053 45.8456 58.6642 45.1895 58.7072 47.3909C58.7378 48.9668 57.9897 50.4384 56.3157 50.3894C56.2973 50.279 56.2605 50.1809 56.2054 50.1257C57.4256 51.5238 57.0883 53.8294 55.8252 55.0557C56.0827 54.2341 56.2115 53.0629 55.4143 52.5539C55.5247 53.1916 55.4389 53.8477 54.8073 54.0746C55.0648 57.0302 49.5032 57.1835 47.5226 57.3736C46.0142 57.5207 44.6222 58.1401 43.1322 58.2872C41.728 58.4283 40.1828 58.183 38.7663 58.1033C38.6314 51.9837 35.3692 46.4404 33.1802 40.8359C32.1929 38.3034 33.6462 36.7889 35.449 34.8205C38.0427 31.9876 40.8634 29.5287 43.1322 26.5057L51.6064 22.4219L51.588 22.428Z" fill="#331B19"/>
<path d="M19.9659 22.428C21.8791 23.0657 19.739 30.6815 17.5377 27.6278C17.3967 28.7561 17.9363 29.9273 19.1872 29.866C19.4876 31.1537 17.5868 30.9084 17.5438 32.4168C17.507 33.9069 18.899 33.772 18.9051 35.1394C18.9051 36.4393 17.4825 37.2488 16.3359 36.8379C14.9317 36.3412 14.8213 35.1271 14.5208 34.054C13.8586 35.1762 13.6685 36.703 14.3491 37.8313C13.4661 37.9417 13.0062 37.1445 12.9695 36.3596C12.4973 37.1139 12.6751 38.1992 13.135 38.8921C12.7916 38.8185 12.3195 38.9963 11.97 38.9412C11.7431 40.2595 12.8652 41.7434 13.9076 42.5099C15.0359 43.3438 17.2924 43.1599 15.4283 44.7051C14.0548 45.8456 12.8959 45.1895 12.853 47.3909C12.8223 48.9668 13.5704 50.4384 15.2505 50.3894C15.2689 50.279 15.3057 50.1809 15.3609 50.1257C14.1406 51.5238 14.4779 53.8294 15.7411 55.0557C15.4835 54.2341 15.3548 53.0629 16.1519 52.5539C16.0415 53.1916 16.1274 53.8477 16.7651 54.0746C16.5075 57.0302 22.0692 57.1835 24.0498 57.3736C25.5582 57.5207 26.9501 58.1401 28.4402 58.2872C29.8444 58.4283 31.3896 58.183 32.7999 58.1033C32.9349 51.9837 36.197 46.4404 38.3861 40.8359C39.3733 38.3034 37.9201 36.7889 36.1173 34.8205C33.5235 31.9876 30.6967 29.5287 28.4341 26.5057L19.9598 22.4219L19.9659 22.428Z" fill="#331B19"/>
<path d="M55.7209 57.1355C53.4521 54.3087 35.5225 48.1094 35.5225 48.1094C35.5225 48.1094 17.9608 54.9709 15.3241 57.1355C12.6812 59.3062 11.6879 73.0048 11.6879 73.0048H58.8359C58.8359 73.0048 57.9835 59.9623 55.7209 57.1355Z" fill="#D84B58"/>
<path d="M41.0841 51.4145C41.0841 51.4145 40.3973 54.7441 35.5286 54.7441C30.6599 54.7441 29.9732 51.4145 29.9732 51.4145C29.9732 51.4145 31.3283 48.7226 29.9732 45.5647C28.618 42.4067 42.7397 41.7629 41.0841 45.5647C39.4285 49.3664 41.0841 51.4145 41.0841 51.4145Z" fill="#DDA778"/>
<path d="M47.124 38.9369C47.4797 34.197 50.4843 27.366 50.4843 27.366C54.7644 17.8003 47.8967 3.81963 42.0346 7.81148C35.7555 -0.564661 14.6741 8.81711 21.0206 27.2373C21.0206 27.2373 23.6267 33.5899 23.8781 38.2808C24.1295 42.9717 32.5547 47.4725 35.265 47.6258C37.9691 47.7791 46.7745 43.683 47.124 38.943V38.9369Z" fill="#331B19"/>
<path d="M51.2262 30.106C51.2262 32.614 49.4479 36.054 48.2522 36.054C47.0565 36.054 46.0815 34.0243 46.0815 31.5164C46.0815 29.0084 47.3079 27.7146 48.2522 26.9788C49.4112 26.0713 51.2262 26.9788 51.2262 30.106Z" fill="#F9BB8D"/>
<path d="M20.1805 30.106C20.1805 32.614 21.9588 36.054 23.1545 36.054C24.3502 36.054 25.3252 34.0243 25.3252 31.5164C25.3252 29.0084 24.0988 27.7146 23.1545 26.9788C21.9956 26.0713 20.1805 26.9788 20.1805 30.106Z" fill="#F9BB8D"/>
<path d="M35.7494 10.2344C27.3303 10.2344 23.6083 16.1332 23.6083 24.9325V35.9515C23.6083 43.6163 32.4627 50.1713 35.2588 50.1713C38.055 50.1713 47.8905 42.5064 47.8905 35.2463V24.9325C47.8905 16.1332 44.1685 10.2344 35.7494 10.2344Z" fill="#F9BB8D"/>
<path d="M47.8966 31.2171L48.2523 26.6488C50.0857 17.7515 44.2543 9.14844 35.8352 9.14844C27.4161 9.14844 20.8857 18.5363 23.1422 27.4337L23.6144 32.6335C23.6144 32.6335 25.2332 31.2661 25.5153 28.8011C25.8893 25.5206 28.2746 22.3197 32.8796 21.4367C40.1398 20.0509 42.1817 15.6973 42.1817 15.6973C42.1817 15.6973 43.7147 17.8925 45.2354 21.4367C46.2165 23.73 45.2354 25.1342 46.0816 27.4276C46.9768 29.8497 47.8966 31.2232 47.8966 31.2232V31.2171Z" fill="#331B19"/>
</g>
</g>
<defs>
<clipPath id="clip0_1886_7120">
<rect width="72.1109" height="73" fill="white" transform="translate(0.11084)"/>
</clipPath>
</defs>
</svg>
