<svg width="74" height="73" viewBox="0 0 74 73" fill="none" xmlns="http://www.w3.org/2000/svg">
<g clip-path="url(#clip0_1886_7088)">
<path d="M73.1108 36.0554C73.1108 55.9656 56.7665 72.1109 36.6108 72.1109C16.4551 72.1109 0.11084 55.9656 0.11084 36.0554C0.11084 16.1452 16.4551 0 36.6108 0C56.7665 0 73.1108 16.1452 73.1108 36.0554Z" fill="#72BCC6"/>
<mask id="mask0_1886_7088" style="mask-type:alpha" maskUnits="userSpaceOnUse" x="0" y="0" width="74" height="73">
<path d="M73.1108 36.0554C73.1108 55.9656 56.7665 72.1109 36.6108 72.1109C16.4551 72.1109 0.11084 55.9656 0.11084 36.0554C0.11084 16.1452 16.4551 0 36.6108 0C56.7665 0 73.1108 16.1452 73.1108 36.0554Z" fill="#72BCC6"/>
</mask>
<g mask="url(#mask0_1886_7088)">
<path d="M56.0216 57.1355C53.7248 54.3087 35.5742 48.1094 35.5742 48.1094C35.5742 48.1094 17.8021 54.9709 15.1205 57.1355C12.4451 59.3062 11.4457 73.0048 11.4457 73.0048H59.175C59.175 73.0048 58.3122 59.9623 56.0216 57.1355Z" fill="#003662"/>
<path d="M41.2043 51.4145C41.2043 51.4145 40.8257 53.2172 38.6717 54.1677C37.8957 54.5111 36.8839 58.8831 35.5803 58.8831C34.2023 58.8831 33.1532 54.4865 32.3649 54.1064C30.3226 53.1375 29.9626 51.4145 29.9626 51.4145C29.9626 51.4145 31.3344 48.7226 29.9626 45.5647C28.5907 42.4067 42.8865 41.7629 41.2105 45.5647C39.5345 49.3664 41.2105 51.4145 41.2105 51.4145H41.2043Z" fill="#DDA778"/>
<path d="M48.4112 38.8385C49.4603 34.1966 50.7204 27.3657 50.7204 27.3657C55.0532 17.8 50.559 3.37783 42.1603 7.81117C31.7689 -1.56447 15.3315 11.5455 20.8934 27.237C20.8934 27.237 21.5638 34.4174 22.6439 38.9918C23.8606 44.1364 32.8304 47.9566 35.5741 48.1099C38.3116 48.2632 47.3001 43.7562 48.4112 38.8446V38.8385Z" fill="#281511"/>
<path d="M51.4715 30.0999C51.4715 32.6078 49.6713 36.054 48.4609 36.054C47.2504 36.054 46.2634 34.0182 46.2634 31.5164C46.2634 29.0146 47.5049 27.7146 48.4609 26.9788C49.6341 26.0713 51.4715 26.9788 51.4715 30.106V30.0999Z" fill="#F9BB8D"/>
<path d="M20.0431 30.0999C20.0431 32.6078 21.8433 36.054 23.0537 36.054C24.2642 36.054 25.2512 34.0182 25.2512 31.5164C25.2512 29.0146 24.0097 27.7146 23.0537 26.9788C21.8805 26.0713 20.0431 26.9788 20.0431 30.106V30.0999Z" fill="#F9BB8D"/>
<path d="M35.8101 10.2344C27.2872 10.2344 23.5193 16.1332 23.5193 24.9325V35.9515C23.5193 43.6163 32.4829 50.1713 35.3135 50.1713C38.1441 50.1713 48.1009 42.5064 48.1009 35.2463V24.9325C48.1009 16.1332 44.333 10.2344 35.8101 10.2344Z" fill="#F9BB8D"/>
<path d="M48.1009 31.2118L48.8706 24.7917C48.8706 15.9925 44.3329 9.4375 35.81 9.4375C27.2872 9.4375 23.0785 15.9925 23.0785 24.7917L23.5192 32.6221C23.5192 32.6221 24.531 30.942 24.4379 28.4586C24.2331 22.8111 28.2369 22.3083 32.8987 21.4253C40.2484 20.0395 42.3155 15.6859 42.3155 15.6859C42.3155 15.6859 44.724 16.4892 46.2634 20.0395C47.2566 22.3328 47.4925 25.8464 47.4118 27.2874C47.3373 28.7223 48.1009 31.2118 48.1009 31.2118Z" fill="#281511"/>
<path d="M28.5721 24.7891C25.276 24.7891 23.2089 25.997 23.2089 27.2847C23.2089 29.3267 23.9662 32.644 27.2375 33.0364C30.4033 33.4166 34.5437 32.2822 34.5437 27.064C34.5437 25.856 31.8683 24.7952 28.5721 24.7952V24.7891ZM27.4796 32.4478C24.6738 32.1105 24.0282 29.2776 24.0282 27.53C24.0282 26.4324 25.7912 25.39 28.6156 25.39C31.44 25.39 33.7305 26.2975 33.7305 27.3338C33.7305 31.8039 30.1923 32.7728 27.4796 32.4478Z" fill="#AC0F09"/>
<path d="M36.6108 28.3821C36.6108 28.3821 36.4556 27.585 35.3693 27.585C34.6244 27.585 34.4319 28.4557 34.4319 28.4557L34.0347 26.1562C34.0347 26.1562 34.5809 26.6161 34.941 26.6161C35.121 26.6161 35.5679 26.7081 35.9404 26.6161C36.3128 26.5242 36.6108 26.1562 36.6108 26.1562V28.376V28.3821Z" fill="#AC0F09"/>
<path d="M23.6682 29.6342C23.6682 29.6342 22.4825 29.5483 22.4825 28.9474V27.1385C22.4825 26.1942 23.6682 26.4947 23.6682 26.4947V29.6342Z" fill="#AC0F09"/>
<path d="M36.0769 27.064C36.0769 32.2822 40.2111 33.4166 43.3831 33.0364C46.6607 32.644 47.4118 29.3328 47.4118 27.2847C47.4118 25.997 45.3509 24.7891 42.0485 24.7891C38.7461 24.7891 36.0769 25.8499 36.0769 27.0579V27.064ZM36.8901 27.3338C36.8901 26.2975 39.1806 25.39 42.005 25.39C44.8295 25.39 46.5924 26.4263 46.5924 27.53C46.5924 29.2776 45.9468 32.1167 43.1472 32.4478C40.4346 32.7728 36.8963 31.8039 36.8963 27.3338H36.8901Z" fill="#AC0F09"/>
<path d="M46.9524 29.6342C46.9524 29.6342 48.138 29.5483 48.138 28.9474V27.1385C48.138 26.1942 46.9524 26.4947 46.9524 26.4947V29.6342Z" fill="#AC0F09"/>
</g>
</g>
<defs>
<clipPath id="clip0_1886_7088">
<rect width="73" height="73" fill="white" transform="translate(0.11084)"/>
</clipPath>
</defs>
</svg>
