<svg width="73" height="73" viewBox="0 0 73 73" fill="none" xmlns="http://www.w3.org/2000/svg">
<g clip-path="url(#clip0_1886_7135)">
<path d="M72.1109 36.0554C72.1109 55.9656 55.9656 72.1109 36.0554 72.1109C16.1452 72.1109 0 55.9718 0 36.0554C0 16.1391 16.1452 0 36.0554 0C55.9656 0 72.1109 16.1452 72.1109 36.0554Z" fill="#F7DAA2"/>
<mask id="mask0_1886_7135" style="mask-type:alpha" maskUnits="userSpaceOnUse" x="0" y="0" width="73" height="73">
<path d="M72.1109 36.0554C72.1109 55.9656 55.9656 72.1109 36.0554 72.1109C16.1452 72.1109 0 55.9718 0 36.0554C0 16.1391 16.1452 0 36.0554 0C55.9656 0 72.1109 16.1452 72.1109 36.0554Z" fill="#F7DAA2"/>
</mask>
<g mask="url(#mask0_1886_7135)">
<path d="M56.027 57.1355C53.7644 54.3087 35.8286 48.1094 35.8286 48.1094C35.8286 48.1094 18.2731 54.9709 15.6302 57.1355C12.9874 59.3062 11.994 73.0048 11.994 73.0048H59.142C59.142 73.0048 58.2897 59.9623 56.027 57.1355Z" fill="#293033"/>
<path d="M41.3842 51.4223C41.3842 51.4223 40.6974 54.7519 35.8287 54.7519C30.96 54.7519 30.2732 51.4223 30.2732 51.4223C30.2732 51.4223 31.6283 48.7304 30.2732 45.5725C28.9181 42.4146 43.0398 41.7707 41.3842 45.5725C39.7286 49.3742 41.3842 51.4223 41.3842 51.4223Z" fill="#DDA778"/>
<path d="M47.424 38.9366C47.7796 34.1966 50.7843 27.3657 50.7843 27.3657C55.0643 17.8 50.6248 3.37783 42.3284 7.81117C32.0636 -1.56447 15.8264 11.5455 21.3206 27.237C21.3206 27.237 23.9266 33.5896 24.178 38.2805C24.4294 42.9714 32.8546 52.347 35.5649 52.4942C38.2691 52.6475 47.0745 43.6765 47.424 38.9427V38.9366Z" fill="#442928"/>
<path d="M51.5262 30.106C51.5262 32.614 49.748 36.054 48.5523 36.054C47.3566 36.054 46.3816 34.0182 46.3816 31.5164C46.3816 29.0146 47.608 27.7146 48.5523 26.9788C49.7112 26.0713 51.5262 26.9788 51.5262 30.106Z" fill="#F9BB8D"/>
<path d="M20.4867 30.106C20.4867 32.614 22.2649 36.054 23.4607 36.054C24.6564 36.054 25.6313 34.0182 25.6313 31.5164C25.6313 29.0146 24.405 27.7146 23.4607 26.9788C22.3017 26.0713 20.4867 26.9788 20.4867 30.106Z" fill="#F9BB8D"/>
<path d="M36.0555 10.2344C27.6365 10.2344 23.9144 16.1332 23.9144 24.9325V35.9515C23.9144 43.6163 32.7689 50.1713 35.565 50.1713C38.3611 50.1713 48.1967 42.5064 48.1967 35.2463V24.9325C48.1967 16.1332 44.4746 10.2344 36.0555 10.2344Z" fill="#F9BB8D"/>
<path d="M48.1966 31.2157L48.9509 24.7956C48.9509 15.9964 44.4746 9.44141 36.0494 9.44141C27.6242 9.44141 23.0498 16.9407 23.0498 25.7461L23.9083 32.6322C23.9083 32.6322 25.9011 31.2832 25.8091 28.7997C25.6068 23.1523 28.5685 22.3183 33.1735 21.4354C40.4337 20.0496 42.4756 15.6959 42.4756 15.6959C42.4756 15.6959 44.8548 16.5053 46.3755 20.0496C47.3566 22.3429 46.075 24.8385 45.9953 26.2734C45.9217 27.7083 48.1905 31.2157 48.1905 31.2157H48.1966Z" fill="#442928"/>
<path d="M36.8465 45.5781C36.1046 45.6272 34.7433 45.7559 34.2896 45.5781C35.6508 47.6691 34.2896 50.6308 34.2896 50.6308H36.8465C36.8465 50.6308 35.7305 48.1045 36.8465 45.5781Z" fill="#442928"/>
</g>
</g>
<defs>
<clipPath id="clip0_1886_7135">
<rect width="72.1109" height="73" fill="white"/>
</clipPath>
</defs>
</svg>
