<svg width="73" height="73" viewBox="0 0 73 73" fill="none" xmlns="http://www.w3.org/2000/svg">
<g clip-path="url(#clip0_1886_7163)">
<path d="M72.3763 36.0554C72.3763 55.9656 56.231 72.1109 36.3208 72.1109C16.4106 72.1109 0.265381 55.9656 0.265381 36.0554C0.265381 16.1452 16.4106 0 36.3208 0C56.231 0 72.3763 16.1452 72.3763 36.0554Z" fill="#AE9DCC"/>
<mask id="mask0_1886_7163" style="mask-type:alpha" maskUnits="userSpaceOnUse" x="0" y="0" width="73" height="73">
<path d="M72.3763 36.0554C72.3763 55.9656 56.231 72.1109 36.3208 72.1109C16.4106 72.1109 0.265381 55.9656 0.265381 36.0554C0.265381 16.1452 16.4106 0 36.3208 0C56.231 0 72.3763 16.1452 72.3763 36.0554Z" fill="#AE9DCC"/>
</mask>
<g mask="url(#mask0_1886_7163)">
<path d="M19.3233 48.1134C22.3463 54.9382 47.1865 55.6372 50.7307 48.8554C46.5672 46.0224 49.8539 35.3101 49.8539 35.3101L50.9699 27.3754C53.4962 17.2333 44.7644 2.00783 36.1246 7.37935C31.0719 2.37574 18.5507 13.0759 21.5062 27.2466L21.5614 33.7342C21.5614 33.7342 24.0939 45.722 19.3171 48.1195L19.3233 48.1134Z" fill="#432918"/>
<path d="M56.2127 57.1394C53.9439 54.3126 36.0143 48.1133 36.0143 48.1133C36.0143 48.1133 18.4587 54.9749 15.8159 57.1394C13.1731 59.3101 12.1797 73.0087 12.1797 73.0087H59.3277C59.3277 73.0087 58.4754 59.9662 56.2127 57.1394Z" fill="#6E7ABA"/>
<path d="M41.5698 51.4184C41.5698 51.4184 40.8831 54.748 36.0144 54.748C31.1456 54.748 30.4589 51.4184 30.4589 51.4184C30.4589 51.4184 31.814 48.7265 30.4589 45.5686C29.1037 42.4106 43.2254 41.7668 41.5698 45.5686C39.9142 49.3703 41.5698 51.4184 41.5698 51.4184Z" fill="#DDA778"/>
<path d="M51.7119 30.1038C51.7119 32.6117 49.9337 36.0579 48.7379 36.0579C47.5422 36.0579 46.5673 34.0221 46.5673 31.5203C46.5673 29.0185 47.7936 27.7185 48.7379 26.9827C49.8969 26.0752 51.7119 26.9827 51.7119 30.1099V30.1038Z" fill="#F9BB8D"/>
<path d="M20.6724 30.1038C20.6724 32.6117 22.4506 36.0579 23.6463 36.0579C24.842 36.0579 25.817 34.0221 25.817 31.5203C25.817 29.0185 24.5906 27.7185 23.6463 26.9827C22.4874 26.0752 20.6724 26.9827 20.6724 30.1099V30.1038Z" fill="#F9BB8D"/>
<path d="M36.2412 10.2383C27.8221 10.2383 24.1001 16.1371 24.1001 24.9364V35.9554C24.1001 43.6202 32.9545 50.1752 35.7507 50.1752C38.5468 50.1752 48.3823 42.5104 48.3823 35.2502V24.9364C48.3823 16.1371 44.6603 10.2383 36.2412 10.2383Z" fill="#F9BB8D"/>
<path d="M48.3823 31.2154L48.738 26.6471C50.5714 17.7498 44.74 9.14062 36.3209 9.14062C27.9019 9.14062 21.3714 18.5285 23.6279 27.4259L24.1001 32.6257C24.1001 32.6257 25.725 31.2583 26.001 28.7933C26.001 28.7933 35.4686 23.9859 36.0389 15.0518C39.0557 22.594 46.7022 28.0759 46.7022 28.0759C47.1069 30.6267 48.3823 31.2092 48.3823 31.2092V31.2154Z" fill="#432918"/>
<path d="M29.8518 25.8242C26.5957 25.8242 24.5538 27.0322 24.5538 28.3199C24.5538 30.3618 25.2958 33.6792 28.5334 34.0716C31.6607 34.4518 35.7445 33.3174 35.7445 28.093C35.7445 26.885 33.1017 25.8242 29.8456 25.8242H29.8518ZM28.7664 33.4829C25.9948 33.1457 25.3571 30.3128 25.3571 28.559C25.3571 27.4614 27.0986 26.419 29.8886 26.419C32.6786 26.419 34.9412 27.3265 34.9412 28.3628C34.9412 32.833 31.4461 33.8018 28.7664 33.4768V33.4829Z" fill="#AC0F09"/>
<path d="M37.7986 29.4173C37.7986 29.4173 37.6453 28.6201 36.5723 28.6201C35.8364 28.6201 35.6463 29.4909 35.6463 29.4909L35.2539 27.1914C35.2539 27.1914 35.7935 27.6513 36.1492 27.6513C36.327 27.6513 36.7623 27.7433 37.1364 27.6513C37.5043 27.5593 37.7986 27.1914 37.7986 27.1914V29.4111V29.4173Z" fill="#AC0F09"/>
<path d="M25.0137 30.6615C25.0137 30.6615 23.8425 30.5757 23.8425 29.9748V28.1658C23.8425 27.2215 25.0137 27.522 25.0137 27.522V30.6615Z" fill="#AC0F09"/>
<path d="M37.2714 28.093C37.2714 33.3112 41.3552 34.4456 44.4886 34.0716C47.7262 33.6792 48.4682 30.3679 48.4682 28.3199C48.4682 27.0322 46.4324 25.8242 43.1764 25.8242C39.9203 25.8242 37.2775 26.885 37.2775 28.093H37.2714ZM38.0808 28.3628C38.0808 27.3265 40.3434 26.419 43.1334 26.419C45.9234 26.419 47.6649 27.4553 47.6649 28.559C47.6649 30.3066 47.0272 33.1457 44.2617 33.4829C41.5821 33.8079 38.0869 32.8391 38.0869 28.3689L38.0808 28.3628Z" fill="#AC0F09"/>
<path d="M48.0144 30.6615C48.0144 30.6615 49.1856 30.5757 49.1856 29.9748V28.1658C49.1856 27.2215 48.0144 27.522 48.0144 27.522V30.6615Z" fill="#AC0F09"/>
</g>
</g>
<defs>
<clipPath id="clip0_1886_7163">
<rect width="72.1109" height="73" fill="white" transform="translate(0.265381)"/>
</clipPath>
</defs>
</svg>
