<svg width="72" height="73" viewBox="0 0 72 73" fill="none" xmlns="http://www.w3.org/2000/svg">
<g clip-path="url(#clip0_1886_7149)">
<path d="M71.2654 35.5773C71.2654 55.2235 55.3343 71.1546 35.6881 71.1546C16.042 71.1546 0.11084 55.2235 0.11084 35.5773C0.11084 15.9311 16.042 0 35.6881 0C55.3343 0 71.2654 15.9251 71.2654 35.5773Z" fill="#F9B233"/>
<mask id="mask0_1886_7149" style="mask-type:alpha" maskUnits="userSpaceOnUse" x="0" y="0" width="72" height="72">
<path d="M71.2654 35.5773C71.2654 55.2235 55.3343 71.1546 35.6881 71.1546C16.042 71.1546 0.11084 55.2235 0.11084 35.5773C0.11084 15.9311 16.042 0 35.6881 0C55.3343 0 71.2654 15.9251 71.2654 35.5773Z" fill="#F9B233"/>
</mask>
<g mask="url(#mask0_1886_7149)">
<path d="M56.6534 57.3439C54.2634 54.5546 35.3554 48.4375 35.3554 48.4375C35.3554 48.4375 16.8467 55.2081 14.0574 57.3439C11.2681 59.4858 10.2274 73.0028 10.2274 73.0028H59.9388C59.9388 73.0028 59.0433 60.1332 56.6534 57.3439Z" fill="#004B74"/>
<path d="M43.9654 52.3543L35.3554 55.6397L26.7455 52.3543V47.9676C26.7455 47.9676 30.6723 46.582 35.5672 46.582C40.4621 46.582 43.9654 47.9676 43.9654 47.9676V52.3543Z" fill="#013958"/>
<path d="M42.6705 48.3191L35.3554 51.6046L28.0403 48.3191V42.5469H42.6705V48.3191Z" fill="#DDA778"/>
<path d="M50.1006 31.2188V23.2805C50.1006 12.1596 45.6413 4.69922 35.5671 4.69922C25.493 4.69922 21.0337 12.1596 21.0337 23.2805V31.2188C21.0337 31.2188 23.2542 29.3855 25.2812 27.0863C26.1948 26.0516 23.0788 20.352 24.0287 17.956C25.1844 15.0517 28.137 12.9824 28.137 12.9824C28.137 12.9824 29.3593 14.3983 34.7806 14.8944C40.335 15.4027 42.2651 12.3411 42.2651 12.3411C42.2651 12.3411 42.737 25.0412 43.9774 26.7112C46.6397 30.287 50.1187 31.2128 50.1187 31.2128L50.1006 31.2188Z" fill="black"/>
<path d="M50.8328 27.8861C50.8328 30.3608 49.0781 33.7612 47.8982 33.7612C46.7184 33.7612 45.7563 31.7585 45.7563 29.2838C45.7563 26.8091 46.9665 25.5324 47.8982 24.8064C49.0418 23.9109 50.8328 24.8064 50.8328 27.8922V27.8861Z" fill="#F9BB8D"/>
<path d="M20.2048 27.8861C20.2048 30.3608 21.9595 33.7612 23.1394 33.7612C24.3192 33.7612 25.2813 31.7585 25.2813 29.2838C25.2813 26.8091 24.0711 25.5324 23.1394 24.8064C21.9958 23.9109 20.2048 24.8064 20.2048 27.8922V27.8861Z" fill="#F9BB8D"/>
<path d="M35.5671 8.27949C27.2597 8.27949 23.587 14.1001 23.587 22.7827V33.6555C23.587 35.2468 24.1679 39.3612 24.779 40.6197C26.7454 44.6797 32.5721 49.1752 35.3372 49.1752C38.1023 49.1752 44.6551 44.722 46.2101 40.8678C46.8091 39.3794 47.5533 34.8172 47.5533 32.9537V22.7766C47.5533 14.0941 43.8806 8.27344 35.5732 8.27344L35.5671 8.27949Z" fill="#F9BB8D"/>
<path d="M47.5472 28.9811L48.2915 24.4734C48.8179 14.2237 43.8685 6.64844 35.5671 6.64844C27.2658 6.64844 22.74 15.3189 23.0606 24.4734L23.587 28.9811C23.587 28.9811 23.6052 25.5988 25.2812 23.8078C26.0375 22.997 25.2691 20.5042 26.0557 18.6346C27.0056 16.3656 29.4379 14.7562 29.4379 14.7562C29.4379 14.7562 30.4484 15.8634 34.9076 16.2446C39.4879 16.644 41.0792 14.254 41.0792 14.254C41.0792 14.254 43.808 14.4597 45.3085 17.963C46.2766 20.2259 45.5324 21.2726 45.4598 22.6885C45.3872 24.1043 47.5472 28.9811 47.5472 28.9811Z" fill="black"/>
</g>
</g>
<defs>
<clipPath id="clip0_1886_7149">
<rect width="71.1546" height="73" fill="white" transform="translate(0.11084)"/>
</clipPath>
</defs>
</svg>
