<svg width="73" height="73" viewBox="0 0 73 73" fill="none" xmlns="http://www.w3.org/2000/svg">
<g clip-path="url(#clip0_1886_7075)">
<path d="M72.1109 36.0554C72.1109 55.9656 55.9656 72.1109 36.0554 72.1109C16.1452 72.1109 0 55.9656 0 36.0554C0 16.1452 16.1452 0 36.0554 0C55.9656 0 72.1109 16.1452 72.1109 36.0554Z" fill="#AE9DCC"/>
<mask id="mask0_1886_7075" style="mask-type:alpha" maskUnits="userSpaceOnUse" x="0" y="0" width="73" height="73">
<path d="M72.1109 36.0554C72.1109 55.9656 55.9656 72.1109 36.0554 72.1109C16.1452 72.1109 0 55.9656 0 36.0554C0 16.1452 16.1452 0 36.0554 0C55.9656 0 72.1109 16.1452 72.1109 36.0554Z" fill="#AE9DCC"/>
</mask>
<g mask="url(#mask0_1886_7075)">
<path d="M49.7786 39.4826C50.1343 34.7427 50.7107 27.366 50.7107 27.366C54.9907 17.8003 48.123 3.81963 42.261 7.81148C35.9819 -0.564661 14.9005 8.81711 21.2531 27.2373C21.2531 27.2373 21.523 33.4182 20.4131 39.1392C18.8249 47.3253 15.9552 56.1613 18.6042 58.191C22.3324 61.0484 49.7786 61.3612 51.4526 59.2334C54.1629 55.775 49.4291 44.2287 49.7786 39.4888V39.4826Z" fill="#E6332A"/>
<path d="M55.9473 57.1355C53.6785 54.3087 35.7489 48.1094 35.7489 48.1094C35.7489 48.1094 18.1933 54.9709 15.5505 57.1355C12.9077 59.3062 11.9143 73.0048 11.9143 73.0048H59.0623C59.0623 73.0048 58.21 59.9623 55.9473 57.1355Z" fill="#153C37"/>
<path d="M41.3045 51.4145C41.3045 51.4145 40.6177 54.7441 35.749 54.7441C30.8803 54.7441 30.1935 51.4145 30.1935 51.4145C30.1935 51.4145 31.5486 48.7226 30.1935 45.5647C28.8383 42.4067 42.9601 41.7629 41.3045 45.5647C39.6488 49.3664 41.3045 51.4145 41.3045 51.4145Z" fill="#DDA778"/>
<path d="M51.4465 30.0999C51.4465 32.6078 49.6683 36.054 48.4726 36.054C47.2768 36.054 46.3019 34.0243 46.3019 31.5164C46.3019 29.0084 47.5283 27.7146 48.4726 26.9788C49.6315 26.0713 51.4465 26.9788 51.4465 30.106V30.0999Z" fill="#F9BB8D"/>
<path d="M20.407 30.0999C20.407 32.6078 22.1852 36.054 23.3809 36.054C24.5767 36.054 25.5516 34.0243 25.5516 31.5164C25.5516 29.0084 24.3253 27.7146 23.3809 26.9788C22.222 26.0713 20.407 26.9788 20.407 30.106V30.0999Z" fill="#F9BB8D"/>
<path d="M35.9758 10.2344C27.5568 10.2344 23.8347 16.1332 23.8347 24.9325V35.9515C23.8347 43.6163 32.6891 50.1713 35.4853 50.1713C38.2814 50.1713 48.117 42.5064 48.117 35.2463V24.9325C48.117 16.1332 44.3949 10.2344 35.9758 10.2344Z" fill="#F9BB8D"/>
<path d="M48.1169 31.2092L48.4726 26.641C50.306 17.7436 44.4746 9.14062 36.0555 9.14062C27.6365 9.14062 21.106 18.5285 23.3626 27.4259L23.8347 32.6257C23.8347 32.6257 25.4597 31.2583 25.7356 28.7933C25.9502 26.9047 26.6799 19.2766 26.6799 19.2766L27.6058 23.7774L37.7602 24.4458L39.4955 20.8832L40.1946 24.6114L43.4199 24.8198L45.4986 18.5837C45.4986 18.5837 45.7868 23.9982 46.4368 28.0759C46.8415 30.6267 48.1169 31.2092 48.1169 31.2092Z" fill="#E6332A"/>
</g>
</g>
<defs>
<clipPath id="clip0_1886_7075">
<rect width="72.1109" height="73" fill="white"/>
</clipPath>
</defs>
</svg>
